{"accessors" : [{"bufferView" : 0, "byteOffset" : 0, "componentType" : 5123, "count" : 324, "type" : "SCALAR", "max" : [215], "min" : [0]}, {"bufferView" : 1, "byteOffset" : 0, "componentType" : 5126, "count" : 216, "type" : "VEC3", "max" : [0.5, 1.1076679229736328, 0.5059749484062195], "min" : [-0.5, -1.2227468490600586, -0.5012624263763428], "name" : "POSITION"}, {"bufferView" : 1, "byteOffset" : 12, "componentType" : 5126, "count" : 216, "type" : "VEC3", "max" : [1.0000042915344238, 1.0000044107437134, 1.0000044107437134], "min" : [-1.0000044107437134, -1.0000042915344238, -1.0000044107437134], "name" : "NORMAL"}, {"bufferView" : 1, "byteOffset" : 24, "componentType" : 5126, "count" : 216, "type" : "VEC2", "max" : [0.9534811973571777, 0.944892168045044], "min" : [0.08732128143310547, 0.0696486234664917], "name" : "TEXCOORD_0"}, {"bufferView" : 0, "byteOffset" : 648, "componentType" : 5123, "count" : 132, "type" : "SCALAR", "max" : [87], "min" : [0]}, {"bufferView" : 2, "byteOffset" : 0, "componentType" : 5126, "count" : 88, "type" : "VEC3", "max" : [0.1921401023864746, 0.6104579567909241, 0.5], "min" : [-1.4254746437072754, -0.5, -0.4999995529651642], "name" : "POSITION"}, {"bufferView" : 2, "byteOffset" : 12, "componentType" : 5126, "count" : 88, "type" : "VEC3", "max" : [0.8870778679847717, 1.0000042915344238, 1.0000042915344238], "min" : [-0.8870778679847717, -1.0000042915344238, -1.0000042915344238], "name" : "NORMAL"}, {"bufferView" : 2, "byteOffset" : 24, "componentType" : 5126, "count" : 88, "type" : "VEC2", "max" : [0.8962000608444214, 0.9502597451210022], "min" : [0.18602174520492554, 0.0216749906539917], "name" : "TEXCOORD_0"}, {"bufferView" : 0, "byteOffset" : 912, "componentType" : 5123, "count" : 132, "type" : "SCALAR", "max" : [87], "min" : [0]}, {"bufferView" : 3, "byteOffset" : 0, "componentType" : 5126, "count" : 88, "type" : "VEC3", "max" : [-0.016162097454071045, 0.9924829602241516, 0.5], "min" : [-2.212012767791748, -0.5, -0.4999995827674866], "name" : "POSITION"}, {"bufferView" : 3, "byteOffset" : 12, "componentType" : 5126, "count" : 88, "type" : "VEC3", "max" : [0.8870778679847717, 1.0000042915344238, 1.0000042915344238], "min" : [-0.8870778679847717, -1.0000042915344238, -1.0000042915344238], "name" : "NORMAL"}, {"bufferView" : 3, "byteOffset" : 24, "componentType" : 5126, "count" : 88, "type" : "VEC2", "max" : [0.8962000608444214, 0.9502597451210022], "min" : [0.18602174520492554, 0.0216749906539917], "name" : "TEXCOORD_0"}, {"bufferView" : 0, "byteOffset" : 1176, "componentType" : 5123, "count" : 180, "type" : "SCALAR", "max" : [119], "min" : [0]}, {"bufferView" : 4, "byteOffset" : 0, "componentType" : 5126, "count" : 120, "type" : "VEC3", "max" : [-0.016162097454071045, 0.6044691205024719, 0.5], "min" : [-1.3757039308547974, -0.5, -0.4999995827674866], "name" : "POSITION"}, {"bufferView" : 4, "byteOffset" : 12, "componentType" : 5126, "count" : 120, "type" : "VEC3", "max" : [0.8870778679847717, 1.0000042915344238, 1.0000042915344238], "min" : [-0.9694185256958008, -1.0000042915344238, -1.0000042915344238], "name" : "NORMAL"}, {"bufferView" : 4, "byteOffset" : 24, "componentType" : 5126, "count" : 120, "type" : "VEC2", "max" : [0.8962000608444214, 0.9502597451210022], "min" : [0.18602174520492554, 0.0216749906539917], "name" : "TEXCOORD_0"}, {"bufferView" : 0, "byteOffset" : 1536, "componentType" : 5123, "count" : 180, "type" : "SCALAR", "max" : [119], "min" : [0]}, {"bufferView" : 5, "byteOffset" : 0, "componentType" : 5126, "count" : 120, "type" : "VEC3", "max" : [-0.5281510353088379, 0.31846490502357483, 0.5], "min" : [-2.6192474365234375, -0.5, -0.4999995827674866], "name" : "POSITION"}, {"bufferView" : 5, "byteOffset" : 12, "componentType" : 5126, "count" : 120, "type" : "VEC3", "max" : [0.8870778679847717, 1.0000042915344238, 1.0000042915344238], "min" : [-0.9569461345672607, -1.0000042915344238, -1.0000042915344238], "name" : "NORMAL"}, {"bufferView" : 5, "byteOffset" : 24, "componentType" : 5126, "count" : 120, "type" : "VEC2", "max" : [0.8962000608444214, 0.9502597451210022], "min" : [0.18602174520492554, 0.0216749906539917], "name" : "TEXCOORD_0"}, {"bufferView" : 0, "byteOffset" : 1896, "componentType" : 5123, "count" : 204, "type" : "SCALAR", "max" : [135], "min" : [0]}, {"bufferView" : 6, "byteOffset" : 0, "componentType" : 5126, "count" : 136, "type" : "VEC3", "max" : [0.011362195014953613, 0.8324649930000305, 0.4999995231628418], "min" : [-2.1367194652557373, -0.5, -0.4999995231628418], "name" : "POSITION"}, {"bufferView" : 6, "byteOffset" : 12, "componentType" : 5126, "count" : 136, "type" : "VEC3", "max" : [0.8870778679847717, 1.0000042915344238, 1.0000042915344238], "min" : [-0.9902437329292297, -1.0000042915344238, -1.0000042915344238], "name" : "NORMAL"}, {"bufferView" : 6, "byteOffset" : 24, "componentType" : 5126, "count" : 136, "type" : "VEC2", "max" : [0.8962000608444214, 0.9502597451210022], "min" : [0.18602174520492554, 0.0216749906539917], "name" : "TEXCOORD_0"}], "asset" : {"generator" : "Aspose.3D 25.2.0", "version" : "2.0"}, "buffers" : [{"uri" : "data:application/octet-stream;base64,", "byteLength" : 26908}], "bufferViews" : [{"buffer" : 0, "byteOffset" : 0, "byteLength" : 2304, "target" : 34963}, {"buffer" : 0, "byteOffset" : 2308, "byteLength" : 6912, "byteStride" : 32, "target" : 34962}, {"buffer" : 0, "byteOffset" : 9224, "byteLength" : 2816, "byteStride" : 32, "target" : 34962}, {"buffer" : 0, "byteOffset" : 12044, "byteLength" : 2816, "byteStride" : 32, "target" : 34962}, {"buffer" : 0, "byteOffset" : 14864, "byteLength" : 3840, "byteStride" : 32, "target" : 34962}, {"buffer" : 0, "byteOffset" : 18708, "byteLength" : 3840, "byteStride" : 32, "target" : 34962}, {"buffer" : 0, "byteOffset" : 22552, "byteLength" : 4352, "byteStride" : 32, "target" : 34962}], "images" : [{"uri" : "/Users/trafico4/Desktop/SOLO UN LEON/3D/PARTES/UVELEMENTOS/UVMESAFINAL.png"}, {"uri" : "/Users/trafico4/Desktop/SOLO UN LEON/3D/PARTES/UVELEMENTOS/UVPATAFINAL.png"}], "materials" : [{"name" : "lambert4", "pbrMetallicRoughness" : {"baseColorFactor" : [1, 1, 1, 1], "baseColorTexture" : {"index" : 0, "texCoord" : 0}, "metallicFactor" : 1, "roughnessFactor" : 1}, "emissiveFactor" : [0, 0, 0], "alphaMode" : "OPAQUE", "doubleSided" : false}, {"name" : "lambert5", "pbrMetallicRoughness" : {"baseColorFactor" : [1, 1, 1, 1], "baseColorTexture" : {"index" : 1, "texCoord" : 0}, "metallicFactor" : 1, "roughnessFactor" : 1}, "emissiveFactor" : [0, 0, 0], "alphaMode" : "OPAQUE", "doubleSided" : false}], "meshes" : [{"primitives" : [{"attributes" : {"POSITION" : 1, "NORMAL" : 2, "TEXCOORD_0" : 3}, "indices" : 0, "material" : 0, "mode" : 4}], "name" : ""}, {"primitives" : [{"attributes" : {"POSITION" : 5, "NORMAL" : 6, "TEXCOORD_0" : 7}, "indices" : 4, "material" : 1, "mode" : 4}], "name" : ""}, {"primitives" : [{"attributes" : {"POSITION" : 9, "NORMAL" : 10, "TEXCOORD_0" : 11}, "indices" : 8, "material" : 1, "mode" : 4}], "name" : ""}, {"primitives" : [{"attributes" : {"POSITION" : 13, "NORMAL" : 14, "TEXCOORD_0" : 15}, "indices" : 12, "material" : 1, "mode" : 4}], "name" : ""}, {"primitives" : [{"attributes" : {"POSITION" : 17, "NORMAL" : 18, "TEXCOORD_0" : 19}, "indices" : 16, "material" : 1, "mode" : 4}], "name" : ""}, {"primitives" : [{"attributes" : {"POSITION" : 21, "NORMAL" : 22, "TEXCOORD_0" : 23}, "indices" : 20, "material" : 1, "mode" : 4}], "name" : ""}], "nodes" : [{"matrix" : [9.348416130373057, 1.6903005216176312, 0, 0, -0.08785156681453363, 0.4858739577868483, 0.07879466576346109, 0, 0.26637332928133034, -1.4732106488209866, 9.381294987028605, 0, 0, 4.026124477386475, 0, 1], "mesh" : 0, "name" : "pCube1"}, {"matrix" : [0.7, 0, 0, 0, 0, 3.5, 0, 0, 0, 0, 0.7, 0, 3.5, 1.7576935291290283, 3.5, 1], "mesh" : 1, "name" : "pCube2"}, {"matrix" : [0.7, 0, 0, 0, 0, 3.5, 0, 0, 0, 0, 0.7, 0, 4.89415807723999, 1.7576935291290283, -3.525860093769242, 1], "mesh" : 2, "name" : "pCube14"}, {"matrix" : [0.7, 0, 0, 0, 0, 3.5, 0, 0, 0, 0, 0.7, 0, -2.7110647517126045, 1.7576935291290283, -3.525860093769242, 1], "mesh" : 3, "name" : "pCube15"}, {"matrix" : [0.7, 0, 0, 0, 0, 3.5, 0, 0, 0, 0, 0.7, 0, -2.7110647517126045, 1.7576935291290283, 3.4914904082127434, 1], "mesh" : 4, "name" : "pCube16"}, {"matrix" : [0.7, 0, 0, 0, 0, 3.5, 0, 0, 0, 0, 0.7, 0, 1.2882799316403009, 1.7576935291290283, -3.525860093769242, 1], "mesh" : 5, "name" : "pCube17"}, {"children" : [0, 1, 2, 3, 4, 5], "name" : "MESA_CHUECA"}], "samplers" : [{"magFilter" : 9729, "minFilter" : 9729, "wrapS" : 10497, "wrapT" : 10497}, {"magFilter" : 9729, "minFilter" : 9729, "wrapS" : 10497, "wrapT" : 10497}], "scene" : 0, "scenes" : [{"nodes" : [6]}], "textures" : [{"sampler" : 0, "source" : 0, "name" : "file2"}, {"sampler" : 1, "source" : 1, "name" : "file3"}]}